<svg width="24" height="24" viewBox="0 0 24 24" fill="none" xmlns="http://www.w3.org/2000/svg">
<path d="M9.31909 3.95728L8.60758 4.19445V4.19445L9.31909 3.95728ZM10.616 7.8481L9.90452 8.08527V8.08527L10.616 7.8481ZM9.91397 9.54301L10.2494 10.2138H10.2494L9.91397 9.54301ZM7.96699 10.5165L7.63158 9.84569C7.27155 10.0257 7.11782 10.4578 7.28326 10.8248L7.96699 10.5165ZM13.4835 16.033L13.1752 16.7168C13.5422 16.8822 13.9743 16.7285 14.1543 16.3685L13.4835 16.033ZM14.457 14.086L13.7862 13.7506L14.457 14.086ZM16.1519 13.384L15.9147 14.0955L16.1519 13.384ZM20.0427 14.6809L20.2799 13.9694L20.0427 14.6809ZM18 21V20.25C17.5858 20.25 17.25 20.5858 17.25 21H18ZM18 21.0001V21.7501C18.4142 21.7501 18.75 21.4143 18.75 21.0001H18ZM5.8 2.25C3.83939 2.25 2.25 3.83939 2.25 5.8H3.75C3.75 4.66782 4.66782 3.75 5.8 3.75V2.25ZM7.99094 2.25H5.8V3.75H7.99094V2.25ZM10.0306 3.72011C9.73796 2.84217 8.91636 2.25 7.99094 2.25V3.75C8.27072 3.75 8.51911 3.92903 8.60758 4.19445L10.0306 3.72011ZM11.3275 7.61093L10.0306 3.72011L8.60758 4.19445L9.90452 8.08527L11.3275 7.61093ZM10.2494 10.2138C11.2064 9.73534 11.6659 8.62597 11.3275 7.61092L9.90452 8.08527C10.0068 8.39214 9.86789 8.72753 9.57856 8.87219L10.2494 10.2138ZM8.3024 11.1873L10.2494 10.2138L9.57856 8.87219L7.63158 9.84569L8.3024 11.1873ZM13.7917 15.3493C11.5138 14.3223 9.67776 12.4862 8.65071 10.2082L7.28326 10.8248C8.46068 13.4363 10.5637 15.5393 13.1752 16.7168L13.7917 15.3493ZM13.7862 13.7506L12.8127 15.6976L14.1543 16.3685L15.1278 14.4214L13.7862 13.7506ZM16.3891 12.6725C15.374 12.3341 14.2647 12.7936 13.7862 13.7506L15.1278 14.4214C15.2725 14.1321 15.6079 13.9932 15.9147 14.0955L16.3891 12.6725ZM20.2799 13.9694L16.3891 12.6725L15.9147 14.0955L19.8055 15.3924L20.2799 13.9694ZM21.75 16.0091C21.75 15.0836 21.1578 14.262 20.2799 13.9694L19.8055 15.3924C20.071 15.4809 20.25 15.7293 20.25 16.0091H21.75ZM21.75 18.2V16.0091H20.25V18.2H21.75ZM18.2 21.75C20.1606 21.75 21.75 20.1606 21.75 18.2H20.25C20.25 19.3322 19.3322 20.25 18.2 20.25V21.75ZM18 21.75H18.2V20.25H18V21.75ZM18.75 21.0001V21H17.25V21.0001H18.75ZM2.25 6.00006C2.25 14.6985 9.30152 21.7501 18 21.7501V20.2501C10.1299 20.2501 3.75 13.8701 3.75 6.00006H2.25ZM2.25 6V6.00006H3.75V6H2.25ZM2.25 5.99905V6H3.75V5.99905H2.25ZM2.25 5.8V5.99905H3.75V5.8H2.25Z" fill="white"/>
<path d="M15.3795 10.5595C16.4494 10.5595 17.3192 9.68976 17.3192 8.61986C17.3192 7.54996 16.4494 6.68019 15.3795 6.68019C14.3096 6.68019 13.4398 7.54996 13.4398 8.61986C13.4398 9.68976 14.3096 10.5595 15.3795 10.5595ZM15.3795 7.60384C15.9414 7.60384 16.3955 8.06182 16.3955 8.61986C16.3955 9.18175 15.9375 9.63588 15.3795 9.63588C14.8214 9.63588 14.3635 9.1779 14.3635 8.61986C14.3635 8.05797 14.8176 7.60384 15.3795 7.60384ZM20.1401 5.80272C21.21 5.80272 22.0798 4.93295 22.0798 3.86305C22.0798 2.79315 21.21 1.91953 20.1401 1.91953C19.0703 1.91953 18.2005 2.78931 18.2005 3.8592C18.2005 4.9291 19.0703 5.80272 20.1401 5.80272ZM20.1401 2.84319C20.702 2.84319 21.1562 3.30116 21.1562 3.8592C21.1562 4.42109 20.6982 4.87522 20.1401 4.87522C19.5783 4.87522 19.1241 4.41724 19.1241 3.8592C19.1203 3.30116 19.5783 2.84319 20.1401 2.84319ZM20.1401 6.68019C19.0703 6.68019 18.2005 7.54996 18.2005 8.61986C18.2005 9.68976 19.0703 10.5595 20.1401 10.5595C21.21 10.5595 22.0798 9.68976 22.0798 8.61986C22.0798 7.54996 21.21 6.68019 20.1401 6.68019ZM20.1401 9.63588C19.5783 9.63588 19.1241 9.1779 19.1241 8.61986C19.1241 8.05797 19.5821 7.60384 20.1401 7.60384C20.702 7.60384 21.1562 8.06182 21.1562 8.61986C21.1562 9.18175 20.6982 9.63588 20.1401 9.63588ZM15.3795 5.80272C16.4494 5.80272 17.3192 4.93295 17.3192 3.86305C17.3192 2.79315 16.4494 1.91953 15.3795 1.91953C14.3096 1.91953 13.4398 2.78931 13.4398 3.8592C13.4398 4.9291 14.3096 5.80272 15.3795 5.80272ZM15.3795 2.84319C15.9414 2.84319 16.3955 3.30116 16.3955 3.8592C16.3955 4.42109 15.9375 4.87522 15.3795 4.87522C14.8214 4.87522 14.3635 4.42109 14.3635 3.8592C14.3635 3.30116 14.8176 2.84319 15.3795 2.84319Z" fill="white"/>
</svg>
