<svg width="18" height="20" viewBox="0 0 18 20" fill="none" xmlns="http://www.w3.org/2000/svg">
<path d="M0.0238976 5.88148C0.0238977 6.33088 0.391589 6.69857 0.840989 6.69857C1.29039 6.69857 1.65808 6.33088 1.65808 5.88148L1.65808 3.22593L8.1948 9.76266L8.1948 18.7425C8.1948 19.1919 8.56249 19.5596 9.01189 19.5596C9.46129 19.5596 9.82898 19.1919 9.82898 18.7425L9.82898 9.76266L16.3657 3.22593L16.3657 5.88148C16.3657 6.33088 16.7334 6.69857 17.1828 6.69857C17.6322 6.69857 17.9999 6.33088 17.9999 5.88148L17.9999 1.25675C17.9999 1.15052 17.9754 1.0443 17.9345 0.946252C17.8528 0.741979 17.6976 0.586732 17.4933 0.505023C17.3952 0.464168 17.289 0.439655 17.1828 0.439655L12.5581 0.439656C12.1087 0.439656 11.741 0.807346 11.741 1.25675C11.741 1.70615 12.1087 2.07384 12.5581 2.07384L15.2136 2.07384L9.01189 8.27555L2.81018 2.07384L5.46572 2.07384C5.91512 2.07384 6.28281 1.70615 6.28281 1.25675C6.28281 0.807347 5.91512 0.439656 5.46572 0.439656L0.840988 0.439657C0.734766 0.439657 0.628542 0.464169 0.530493 0.505024C0.32622 0.586733 0.170975 0.741981 0.0892659 0.946253C0.0484105 1.0443 0.0238972 1.15053 0.0238972 1.25675L0.0238976 5.88148Z" fill="white"/>
</svg>
