<svg width="22" height="22" viewBox="0 0 22 22" fill="none" xmlns="http://www.w3.org/2000/svg">
<path d="M19.4428 14.5658C18.8597 15.9449 17.9476 17.1602 16.7862 18.1054C15.6249 19.0505 14.2497 19.6968 12.7809 19.9877C11.3121 20.2786 9.7944 20.2053 8.36048 19.7741C6.92656 19.343 5.62009 18.5671 4.55528 17.5144C3.49048 16.4617 2.69976 15.1642 2.25226 13.7353C1.80477 12.3064 1.71411 10.7896 1.98823 9.31757C2.26235 7.84554 2.89289 6.46307 3.82472 5.29102C4.75656 4.11897 5.96132 3.19303 7.33368 2.59416M19.4692 7.49206C19.8362 8.37799 20.0613 9.31458 20.1377 10.2674C20.1566 10.5028 20.166 10.6205 20.1193 10.7266C20.0802 10.8151 20.0029 10.8989 19.9177 10.9449C19.8158 11 19.6884 11 19.4337 11H11.7337C11.477 11 11.3486 11 11.2506 10.95C11.1644 10.9061 11.0942 10.836 11.0503 10.7497C11.0003 10.6517 11.0003 10.5234 11.0003 10.2667V2.56666C11.0003 2.31195 11.0003 2.18459 11.0554 2.08264C11.1014 1.99748 11.1852 1.92012 11.2738 1.88108C11.3798 1.83434 11.4975 1.84377 11.7329 1.86264C12.6858 1.93904 13.6224 2.16413 14.5083 2.5311C15.6204 2.99177 16.631 3.66698 17.4822 4.51818C18.3334 5.36938 19.0086 6.37991 19.4692 7.49206Z" stroke="white" stroke-width="1.5" stroke-linecap="round" stroke-linejoin="round"/>
</svg>
