<svg width="20" height="20" viewBox="0 0 20 20" fill="none" xmlns="http://www.w3.org/2000/svg">
<path d="M10 19C11.995 18.9999 13.9335 18.3372 15.511 17.116C17.0886 15.8948 18.2159 14.1843 18.716 12.253M10 19C8.00501 18.9999 6.06654 18.3372 4.48898 17.116C2.91141 15.8948 1.78408 14.1843 1.284 12.253M10 19C12.485 19 14.5 14.97 14.5 10C14.5 5.03 12.485 1 10 1M10 19C7.515 19 5.5 14.97 5.5 10C5.5 5.03 7.515 1 10 1M18.716 12.253C18.901 11.533 19 10.778 19 10C19.0025 8.45211 18.6039 6.92999 17.843 5.582M18.716 12.253C16.0492 13.7314 13.0492 14.5048 10 14.5C6.838 14.5 3.867 13.685 1.284 12.253M1.284 12.253C1.09475 11.517 0.999327 10.76 1 10C1 8.395 1.42 6.887 2.157 5.582M10 1C11.5962 0.999335 13.1639 1.42336 14.5422 2.22856C15.9205 3.03377 17.0597 4.19117 17.843 5.582M10 1C8.40376 0.999335 6.83608 1.42336 5.45781 2.22856C4.07954 3.03377 2.94031 4.19117 2.157 5.582M17.843 5.582C15.6657 7.46793 12.8805 8.50415 10 8.5C7.002 8.5 4.26 7.4 2.157 5.582" stroke="#9CA3AF" stroke-width="1.5" stroke-linecap="round" stroke-linejoin="round"/>
</svg>
