<svg width="20" height="20" viewBox="0 0 20 20" fill="none" xmlns="http://www.w3.org/2000/svg">
<g clip-path="url(#clip0_0_86)">
<path d="M17.4999 5H12.4999C12.0391 5 11.6666 5.3725 11.6666 5.83333C11.6666 6.29417 12.0391 6.66667 12.4999 6.66667H17.1549L11.6866 12.135C11.2166 12.605 10.4516 12.605 9.98074 12.135L7.8649 10.0192C6.7449 8.89917 4.9224 8.89917 3.8024 10.0192L0.24407 13.5775C-0.0817635 13.9033 -0.0817635 14.43 0.24407 14.7558C0.40657 14.9183 0.619903 15 0.833237 15C1.04657 15 1.2599 14.9183 1.4224 14.7558L4.98074 11.1975C5.43657 10.7417 6.23074 10.7417 6.68657 11.1975L8.8024 13.3133C9.9224 14.4333 11.7449 14.4333 12.8649 13.3133L18.3341 7.845V12.5C18.3341 12.9608 18.7066 13.3333 19.1674 13.3333C19.6282 13.3333 20.0007 12.9608 20.0007 12.5V7.5C20.0007 6.12167 18.8782 5 17.4999 5Z" fill="white"/>
</g>
<defs>
<clipPath id="clip0_0_86">
<rect width="20" height="20" fill="white"/>
</clipPath>
</defs>
</svg>
