<svg width="26" height="26" viewBox="0 0 26 26" fill="none" xmlns="http://www.w3.org/2000/svg">
<path d="M17.3333 22.75V21.45C17.3333 19.6298 17.3333 18.7197 16.9791 18.0245C16.6675 17.413 16.1703 16.9158 15.5588 16.6042C14.8636 16.25 13.9535 16.25 12.1333 16.25H7.36667C5.5465 16.25 4.63642 16.25 3.9412 16.6042C3.32968 16.9158 2.83249 17.413 2.5209 18.0245C2.16667 18.7197 2.16667 19.6298 2.16667 21.45V22.75M17.3333 6.49999L19.5 8.66666L23.8333 4.33333M13.5417 8.12499C13.5417 10.2191 11.8441 11.9167 9.75001 11.9167C7.65593 11.9167 5.95834 10.2191 5.95834 8.12499C5.95834 6.03091 7.65593 4.33333 9.75001 4.33333C11.8441 4.33333 13.5417 6.03091 13.5417 8.12499Z" stroke="#008080" stroke-width="1.7" stroke-linecap="round" stroke-linejoin="round"/>
</svg>
