<svg width="41" height="22" viewBox="0 0 41 22" fill="none" xmlns="http://www.w3.org/2000/svg">
<path d="M20.0425 21.8304C23.5278 21.8237 26.3479 18.9889 26.3412 15.4988C26.3345 12.0086 23.5037 9.18461 20.0184 9.19127C16.533 9.19794 13.713 12.0327 13.7196 15.5229C13.7263 19.0131 16.5571 21.837 20.0425 21.8304Z" fill="white"/>
<path d="M40.0161 8.44449L35.9384 12.5676C35.5593 12.9496 35.0584 13.1864 34.5229 13.2365C33.9874 13.2867 33.4514 13.1472 33.0081 12.8422L29.1579 10.1716C28.8885 9.98088 28.6729 9.72373 28.5318 9.42507C28.3908 9.1264 28.3291 8.79632 28.3528 8.46679L28.431 7.39866C28.4462 7.21346 28.3968 7.02872 28.2912 6.8759C28.1857 6.72309 28.0304 6.61167 27.852 6.56063C25.6616 5.90235 18.004 3.96973 11.7068 6.91672C11.5473 6.98784 11.4153 7.10915 11.331 7.26221C11.2466 7.41527 11.2144 7.59172 11.2393 7.76477L11.4061 9.0372C11.4526 9.38303 11.4026 9.735 11.2617 10.0541C11.1208 10.3733 10.8944 10.6472 10.6077 10.8455L7.24029 13.2127C6.79026 13.5262 6.24283 13.6676 5.69752 13.6112C5.15221 13.5548 4.64522 13.3043 4.26873 12.9052L0.0141877 8.40856C3.90884 5.00043 13.9634 -1.84426 28.4692 2.20722C32.493 3.35475 36.2377 5.31974 39.47 7.97979L40.0161 8.44449Z" fill="white"/>
</svg>
