<svg width="41" height="34" viewBox="0 0 41 34" fill="none" xmlns="http://www.w3.org/2000/svg">
<g clip-path="url(#clip0_6632_134279)">
<path d="M27.2008 23.8004L20.4008 17.0004M20.4008 17.0004L13.6008 23.8004M20.4008 17.0004V32.3004" stroke="#008080" stroke-width="2" stroke-linecap="round" stroke-linejoin="round"/>
<path d="M34.6632 27.8628C36.3213 26.9589 37.6311 25.5285 38.386 23.7975C39.1409 22.0664 39.2978 20.1333 38.832 18.3032C38.3662 16.4731 37.3042 14.8502 35.8136 13.6907C34.323 12.5312 32.4887 11.901 30.6002 11.8998H28.4582C27.9437 9.90951 26.9846 8.06177 25.6531 6.49549C24.3217 4.92921 22.6525 3.68515 20.771 2.85683C18.8895 2.02852 16.8448 1.63751 14.7904 1.7132C12.7361 1.78889 10.7256 2.32931 8.91023 3.29383C7.09481 4.25835 5.52167 5.62188 4.30908 7.28189C3.09649 8.9419 2.276 10.8552 1.90929 12.878C1.54258 14.9007 1.6392 16.9803 2.19189 18.9603C2.74457 20.9404 3.73894 22.7694 5.10023 24.3098" stroke="#008080" stroke-width="2" stroke-linecap="round" stroke-linejoin="round"/>
<path d="M27.2008 23.8004L20.4008 17.0004L13.6008 23.8004" stroke="#008080" stroke-width="2" stroke-linecap="round" stroke-linejoin="round"/>
</g>
<defs>
<clipPath id="clip0_6632_134279">
<rect width="40.8" height="34" fill="white"/>
</clipPath>
</defs>
</svg>
