<svg width="24" height="24" viewBox="0 0 24 24" fill="none" xmlns="http://www.w3.org/2000/svg">
<path d="M16.5001 14H16.5101M3.00006 5V19C3.00006 20.1046 3.89549 21 5.00006 21H19.0001C20.1046 21 21.0001 20.1046 21.0001 19V9C21.0001 7.89543 20.1046 7 19.0001 7L5.00006 7C3.89549 7 3.00006 6.10457 3.00006 5ZM3.00006 5C3.00006 3.89543 3.89549 3 5.00006 3H17.0001M17.0001 14C17.0001 14.2761 16.7762 14.5 16.5001 14.5C16.2239 14.5 16.0001 14.2761 16.0001 14C16.0001 13.7239 16.2239 13.5 16.5001 13.5C16.7762 13.5 17.0001 13.7239 17.0001 14Z" stroke="white" stroke-width="1.5" stroke-linecap="round" stroke-linejoin="round"/>
</svg>
